<?xml version="1.0" encoding="UTF-8"?>
<!DOCTYPE svg
PUBLIC "-//W3C//DTD SVG 1.1//EN"
       "http://www.w3.org/Graphics/SVG/1.1/DTD/svg11.dtd">
<svg viewBox="66 81 837 669" width="771px" height="588px" xmlns="http://www.w3.org/2000/svg" version="1.1">
   <line x1="392" y1="587" x2="382" y2="587" style="stroke:#0b0;stroke-width:1;"/>
   <line x1="228" y1="260" x2="218" y2="260" style="stroke:#0b0;stroke-width:1;"/>
   <line x1="382" y1="587" x2="228" y2="260" style="stroke:#0b0;stroke-width:1;"/>
   <line x1="384.5" y1="587" x2="388.03553390593" y2="590.53553390593" style="stroke:#0b0;stroke-width:2;"/>
   <line x1="384.5" y1="587" x2="388.03553390593" y2="583.46446609407" style="stroke:#0b0;stroke-width:2;"/>
   <line x1="223" y1="260" x2="226.53553390593" y2="263.53553390593" style="stroke:#0b0;stroke-width:2;"/>
   <line x1="223" y1="260" x2="226.53553390593" y2="256.46446609407" style="stroke:#0b0;stroke-width:2;"/>
   <line x1="81" y1="380" x2="71" y2="380" style="stroke:#333;stroke-width:1;"/>
   <line x1="71" y1="260" x2="81" y2="260" style="stroke:#333;stroke-width:1;"/>
   <line x1="71" y1="380" x2="71" y2="260" style="stroke:#333;stroke-width:1;"/>
   <line x1="73.5" y1="380" x2="77.035533905933" y2="383.53553390593" style="stroke:#333;stroke-width:2;"/>
   <line x1="73.5" y1="380" x2="77.035533905933" y2="376.46446609407" style="stroke:#333;stroke-width:2;"/>
   <line x1="76" y1="260" x2="72.464466094067" y2="263.53553390593" style="stroke:#333;stroke-width:2;"/>
   <line x1="76" y1="260" x2="72.464466094067" y2="256.46446609407" style="stroke:#333;stroke-width:2;"/>
   <line x1="218" y1="360" x2="228" y2="360" style="stroke:#0bf;stroke-width:1;"/>
   <line x1="220" y1="484" x2="210" y2="484" style="stroke:#0bf;stroke-width:1;"/>
   <line x1="228" y1="360" x2="220" y2="484" style="stroke:#0bf;stroke-width:1;"/>
   <line x1="225.5" y1="360" x2="221.96446609407" y2="363.53553390593" style="stroke:#0bf;stroke-width:2;"/>
   <line x1="225.5" y1="360" x2="221.96446609407" y2="356.46446609407" style="stroke:#0bf;stroke-width:2;"/>
   <line x1="215" y1="484" x2="218.53553390593" y2="487.53553390593" style="stroke:#0bf;stroke-width:2;"/>
   <line x1="215" y1="484" x2="218.53553390593" y2="480.46446609407" style="stroke:#0bf;stroke-width:2;"/>
   <line x1="687" y1="148" x2="677" y2="148" style="stroke:#333;stroke-width:1;"/>
   <line x1="547" y1="128" x2="537" y2="128" style="stroke:#333;stroke-width:1;"/>
   <line x1="677" y1="148" x2="547" y2="128" style="stroke:#333;stroke-width:1;"/>
   <line x1="679.5" y1="148" x2="683.03553390593" y2="151.53553390593" style="stroke:#333;stroke-width:2;"/>
   <line x1="679.5" y1="148" x2="683.03553390593" y2="144.46446609407" style="stroke:#333;stroke-width:2;"/>
   <line x1="542" y1="128" x2="545.53553390593" y2="131.53553390593" style="stroke:#333;stroke-width:2;"/>
   <line x1="542" y1="128" x2="545.53553390593" y2="124.46446609407" style="stroke:#333;stroke-width:2;"/>
   <line x1="687" y1="128" x2="677" y2="128" style="stroke:#c00;stroke-width:1;"/>
   <line x1="677" y1="294" x2="687" y2="294" style="stroke:#c00;stroke-width:1;"/>
   <line x1="677" y1="128" x2="677" y2="294" style="stroke:#c00;stroke-width:1;"/>
   <line x1="679.5" y1="128" x2="683.03553390593" y2="131.53553390593" style="stroke:#c00;stroke-width:2;"/>
   <line x1="679.5" y1="128" x2="683.03553390593" y2="124.46446609407" style="stroke:#c00;stroke-width:2;"/>
   <line x1="682" y1="294" x2="678.46446609407" y2="297.53553390593" style="stroke:#c00;stroke-width:2;"/>
   <line x1="682" y1="294" x2="678.46446609407" y2="290.46446609407" style="stroke:#c00;stroke-width:2;"/>
   <line x1="687" y1="414" x2="677" y2="414" style="stroke:#0b0;stroke-width:1;"/>
   <line x1="608" y1="367" x2="598" y2="367" style="stroke:#0b0;stroke-width:1;"/>
   <line x1="677" y1="414" x2="608" y2="367" style="stroke:#0b0;stroke-width:1;"/>
   <line x1="679.5" y1="414" x2="683.03553390593" y2="417.53553390593" style="stroke:#0b0;stroke-width:2;"/>
   <line x1="679.5" y1="414" x2="683.03553390593" y2="410.46446609407" style="stroke:#0b0;stroke-width:2;"/>
   <line x1="603" y1="367" x2="606.53553390593" y2="370.53553390593" style="stroke:#0b0;stroke-width:2;"/>
   <line x1="603" y1="367" x2="606.53553390593" y2="363.46446609407" style="stroke:#0b0;stroke-width:2;"/>
   <line x1="685" y1="514" x2="675" y2="514" style="stroke:#0b0;stroke-width:1;"/>
   <line x1="608" y1="367" x2="598" y2="367" style="stroke:#0b0;stroke-width:1;"/>
   <line x1="675" y1="514" x2="608" y2="367" style="stroke:#0b0;stroke-width:1;"/>
   <line x1="677.5" y1="514" x2="681.03553390593" y2="517.53553390593" style="stroke:#0b0;stroke-width:2;"/>
   <line x1="677.5" y1="514" x2="681.03553390593" y2="510.46446609407" style="stroke:#0b0;stroke-width:2;"/>
   <line x1="603" y1="367" x2="606.53553390593" y2="370.53553390593" style="stroke:#0b0;stroke-width:2;"/>
   <line x1="603" y1="367" x2="606.53553390593" y2="363.46446609407" style="stroke:#0b0;stroke-width:2;"/>
   <line x1="393" y1="168" x2="383" y2="168" style="stroke:#333;stroke-width:1;"/>
   <line x1="214" y1="126" x2="204" y2="126" style="stroke:#333;stroke-width:1;"/>
   <line x1="383" y1="168" x2="214" y2="126" style="stroke:#333;stroke-width:1;"/>
   <line x1="385.5" y1="168" x2="389.03553390593" y2="171.53553390593" style="stroke:#333;stroke-width:2;"/>
   <line x1="385.5" y1="168" x2="389.03553390593" y2="164.46446609407" style="stroke:#333;stroke-width:2;"/>
   <line x1="209" y1="126" x2="212.53553390593" y2="129.53553390593" style="stroke:#333;stroke-width:2;"/>
   <line x1="209" y1="126" x2="212.53553390593" y2="122.46446609407" style="stroke:#333;stroke-width:2;"/>
   <rect width="206" height="20" x="392" y="337" style="fill:#007;stroke:black;"/>
   <text width="206" height="20" x="397" y="351" style="fill:#fff;" font-family="Arial" font-size="16px"> customers</text>
   <rect width="206" height="20" x="392" y="357" style="fill:#aea;stroke:black;"/>
   <text width="206" height="20" x="397" y="371" style="fill:black;" font-family="Arial" font-size="16px">customerNumber</text>
   <rect width="206" height="20" x="392" y="377" style="fill:none;stroke:black;"/>
   <text width="206" height="20" x="397" y="391" style="fill:black;" font-family="Arial" font-size="16px">customerName</text>
   <rect width="206" height="20" x="392" y="397" style="fill:none;stroke:black;"/>
   <text width="206" height="20" x="397" y="411" style="fill:black;" font-family="Arial" font-size="16px">contactLastName</text>
   <rect width="206" height="20" x="392" y="417" style="fill:none;stroke:black;"/>
   <text width="206" height="20" x="397" y="431" style="fill:black;" font-family="Arial" font-size="16px">contactFirstName</text>
   <rect width="206" height="20" x="392" y="437" style="fill:none;stroke:black;"/>
   <text width="206" height="20" x="397" y="451" style="fill:black;" font-family="Arial" font-size="16px">phone</text>
   <rect width="206" height="20" x="392" y="457" style="fill:none;stroke:black;"/>
   <text width="206" height="20" x="397" y="471" style="fill:black;" font-family="Arial" font-size="16px">addressLine1</text>
   <rect width="206" height="20" x="392" y="477" style="fill:none;stroke:black;"/>
   <text width="206" height="20" x="397" y="491" style="fill:black;" font-family="Arial" font-size="16px">addressLine2</text>
   <rect width="206" height="20" x="392" y="497" style="fill:none;stroke:black;"/>
   <text width="206" height="20" x="397" y="511" style="fill:black;" font-family="Arial" font-size="16px">city</text>
   <rect width="206" height="20" x="392" y="517" style="fill:none;stroke:black;"/>
   <text width="206" height="20" x="397" y="531" style="fill:black;" font-family="Arial" font-size="16px">state</text>
   <rect width="206" height="20" x="392" y="537" style="fill:none;stroke:black;"/>
   <text width="206" height="20" x="397" y="551" style="fill:black;" font-family="Arial" font-size="16px">postalCode</text>
   <rect width="206" height="20" x="392" y="557" style="fill:none;stroke:black;"/>
   <text width="206" height="20" x="397" y="571" style="fill:black;" font-family="Arial" font-size="16px">country</text>
   <rect width="206" height="20" x="392" y="577" style="fill:none;stroke:black;"/>
   <text width="206" height="20" x="397" y="591" style="fill:black;" font-family="Arial" font-size="16px">salesRepEmployeeNumber</text>
   <rect width="206" height="20" x="392" y="597" style="fill:none;stroke:black;"/>
   <text width="206" height="20" x="397" y="611" style="fill:black;" font-family="Arial" font-size="16px">creditLimit</text>
   <rect width="137" height="20" x="81" y="230" style="fill:#007;stroke:black;"/>
   <text width="137" height="20" x="86" y="244" style="fill:#fff;" font-family="Arial" font-size="16px"> employees</text>
   <rect width="137" height="20" x="81" y="250" style="fill:#aea;stroke:black;"/>
   <text width="137" height="20" x="86" y="264" style="fill:black;" font-family="Arial" font-size="16px">employeeNumber</text>
   <rect width="137" height="20" x="81" y="270" style="fill:none;stroke:black;"/>
   <text width="137" height="20" x="86" y="284" style="fill:black;" font-family="Arial" font-size="16px">lastName</text>
   <rect width="137" height="20" x="81" y="290" style="fill:none;stroke:black;"/>
   <text width="137" height="20" x="86" y="304" style="fill:black;" font-family="Arial" font-size="16px">firstName</text>
   <rect width="137" height="20" x="81" y="310" style="fill:none;stroke:black;"/>
   <text width="137" height="20" x="86" y="324" style="fill:black;" font-family="Arial" font-size="16px">extension</text>
   <rect width="137" height="20" x="81" y="330" style="fill:none;stroke:black;"/>
   <text width="137" height="20" x="86" y="344" style="fill:black;" font-family="Arial" font-size="16px">email</text>
   <rect width="137" height="20" x="81" y="350" style="fill:none;stroke:black;"/>
   <text width="137" height="20" x="86" y="364" style="fill:black;" font-family="Arial" font-size="16px">officeCode</text>
   <rect width="137" height="20" x="81" y="370" style="fill:none;stroke:black;"/>
   <text width="137" height="20" x="86" y="384" style="fill:black;" font-family="Arial" font-size="16px">reportsTo</text>
   <rect width="137" height="20" x="81" y="390" style="fill:none;stroke:black;"/>
   <text width="137" height="20" x="86" y="404" style="fill:black;" font-family="Arial" font-size="16px">jobTitle</text>
   <rect width="106" height="20" x="104" y="454" style="fill:#007;stroke:black;"/>
   <text width="106" height="20" x="109" y="468" style="fill:#fff;" font-family="Arial" font-size="16px"> offices</text>
   <rect width="106" height="20" x="104" y="474" style="fill:none;stroke:black;"/>
   <text width="106" height="20" x="109" y="488" style="fill:black;" font-family="Arial" font-size="16px">officeCode</text>
   <rect width="106" height="20" x="104" y="494" style="fill:none;stroke:black;"/>
   <text width="106" height="20" x="109" y="508" style="fill:black;" font-family="Arial" font-size="16px">city</text>
   <rect width="106" height="20" x="104" y="514" style="fill:none;stroke:black;"/>
   <text width="106" height="20" x="109" y="528" style="fill:black;" font-family="Arial" font-size="16px">phone</text>
   <rect width="106" height="20" x="104" y="534" style="fill:none;stroke:black;"/>
   <text width="106" height="20" x="109" y="548" style="fill:black;" font-family="Arial" font-size="16px">addressLine1</text>
   <rect width="106" height="20" x="104" y="554" style="fill:none;stroke:black;"/>
   <text width="106" height="20" x="109" y="568" style="fill:black;" font-family="Arial" font-size="16px">addressLine2</text>
   <rect width="106" height="20" x="104" y="574" style="fill:none;stroke:black;"/>
   <text width="106" height="20" x="109" y="588" style="fill:black;" font-family="Arial" font-size="16px">state</text>
   <rect width="106" height="20" x="104" y="594" style="fill:none;stroke:black;"/>
   <text width="106" height="20" x="109" y="608" style="fill:black;" font-family="Arial" font-size="16px">country</text>
   <rect width="106" height="20" x="104" y="614" style="fill:none;stroke:black;"/>
   <text width="106" height="20" x="109" y="628" style="fill:black;" font-family="Arial" font-size="16px">postalCode</text>
   <rect width="106" height="20" x="104" y="634" style="fill:none;stroke:black;"/>
   <text width="106" height="20" x="109" y="648" style="fill:black;" font-family="Arial" font-size="16px">territory</text>
   <rect width="135" height="20" x="687" y="98" style="fill:#007;stroke:black;"/>
   <text width="135" height="20" x="692" y="112" style="fill:#fff;" font-family="Arial" font-size="16px"> orderdetails</text>
   <rect width="135" height="20" x="687" y="118" style="fill:#aea;stroke:black;"/>
   <text width="135" height="20" x="692" y="132" style="fill:black;" font-family="Arial" font-size="16px">orderNumber</text>
   <rect width="135" height="20" x="687" y="138" style="fill:none;stroke:black;"/>
   <text width="135" height="20" x="692" y="152" style="fill:black;" font-family="Arial" font-size="16px">productCode</text>
   <rect width="135" height="20" x="687" y="158" style="fill:none;stroke:black;"/>
   <text width="135" height="20" x="692" y="172" style="fill:black;" font-family="Arial" font-size="16px">quantityOrdered</text>
   <rect width="135" height="20" x="687" y="178" style="fill:none;stroke:black;"/>
   <text width="135" height="20" x="692" y="192" style="fill:black;" font-family="Arial" font-size="16px">priceEach</text>
   <rect width="135" height="20" x="687" y="198" style="fill:none;stroke:black;"/>
   <text width="135" height="20" x="692" y="212" style="fill:black;" font-family="Arial" font-size="16px">orderLineNumber</text>
   <rect width="133" height="20" x="687" y="264" style="fill:#007;stroke:black;"/>
   <text width="133" height="20" x="692" y="278" style="fill:#fff;" font-family="Arial" font-size="16px"> orders</text>
   <rect width="133" height="20" x="687" y="284" style="fill:#aea;stroke:black;"/>
   <text width="133" height="20" x="692" y="298" style="fill:black;" font-family="Arial" font-size="16px">orderNumber</text>
   <rect width="133" height="20" x="687" y="304" style="fill:none;stroke:black;"/>
   <text width="133" height="20" x="692" y="318" style="fill:black;" font-family="Arial" font-size="16px">orderDate</text>
   <rect width="133" height="20" x="687" y="324" style="fill:none;stroke:black;"/>
   <text width="133" height="20" x="692" y="338" style="fill:black;" font-family="Arial" font-size="16px">requiredDate</text>
   <rect width="133" height="20" x="687" y="344" style="fill:none;stroke:black;"/>
   <text width="133" height="20" x="692" y="358" style="fill:black;" font-family="Arial" font-size="16px">shippedDate</text>
   <rect width="133" height="20" x="687" y="364" style="fill:none;stroke:black;"/>
   <text width="133" height="20" x="692" y="378" style="fill:black;" font-family="Arial" font-size="16px">status</text>
   <rect width="133" height="20" x="687" y="384" style="fill:none;stroke:black;"/>
   <text width="133" height="20" x="692" y="398" style="fill:black;" font-family="Arial" font-size="16px">comments</text>
   <rect width="133" height="20" x="687" y="404" style="fill:none;stroke:black;"/>
   <text width="133" height="20" x="692" y="418" style="fill:black;" font-family="Arial" font-size="16px">customerNumber</text>
   <rect width="133" height="20" x="685" y="484" style="fill:#007;stroke:black;"/>
   <text width="133" height="20" x="690" y="498" style="fill:#fff;" font-family="Arial" font-size="16px"> payments</text>
   <rect width="133" height="20" x="685" y="504" style="fill:#aea;stroke:black;"/>
   <text width="133" height="20" x="690" y="518" style="fill:black;" font-family="Arial" font-size="16px">customerNumber</text>
   <rect width="133" height="20" x="685" y="524" style="fill:none;stroke:black;"/>
   <text width="133" height="20" x="690" y="538" style="fill:black;" font-family="Arial" font-size="16px">checkNumber</text>
   <rect width="133" height="20" x="685" y="544" style="fill:none;stroke:black;"/>
   <text width="133" height="20" x="690" y="558" style="fill:black;" font-family="Arial" font-size="16px">paymentDate</text>
   <rect width="133" height="20" x="685" y="564" style="fill:none;stroke:black;"/>
   <text width="133" height="20" x="690" y="578" style="fill:black;" font-family="Arial" font-size="16px">amount</text>
   <rect width="121" height="20" x="83" y="96" style="fill:#007;stroke:black;"/>
   <text width="121" height="20" x="88" y="110" style="fill:#fff;" font-family="Arial" font-size="16px"> productlines</text>
   <rect width="121" height="20" x="83" y="116" style="fill:none;stroke:black;"/>
   <text width="121" height="20" x="88" y="130" style="fill:black;" font-family="Arial" font-size="16px">productLine</text>
   <rect width="121" height="20" x="83" y="136" style="fill:none;stroke:black;"/>
   <text width="121" height="20" x="88" y="150" style="fill:black;" font-family="Arial" font-size="16px">textDescription</text>
   <rect width="121" height="20" x="83" y="156" style="fill:none;stroke:black;"/>
   <text width="121" height="20" x="88" y="170" style="fill:black;" font-family="Arial" font-size="16px">htmlDescription</text>
   <rect width="121" height="20" x="83" y="176" style="fill:none;stroke:black;"/>
   <text width="121" height="20" x="88" y="190" style="fill:black;" font-family="Arial" font-size="16px">image</text>
   <rect width="144" height="20" x="393" y="98" style="fill:#007;stroke:black;"/>
   <text width="144" height="20" x="398" y="112" style="fill:#fff;" font-family="Arial" font-size="16px"> products</text>
   <rect width="144" height="20" x="393" y="118" style="fill:none;stroke:black;"/>
   <text width="144" height="20" x="398" y="132" style="fill:black;" font-family="Arial" font-size="16px">productCode</text>
   <rect width="144" height="20" x="393" y="138" style="fill:none;stroke:black;"/>
   <text width="144" height="20" x="398" y="152" style="fill:black;" font-family="Arial" font-size="16px">productName</text>
   <rect width="144" height="20" x="393" y="158" style="fill:none;stroke:black;"/>
   <text width="144" height="20" x="398" y="172" style="fill:black;" font-family="Arial" font-size="16px">productLine</text>
   <rect width="144" height="20" x="393" y="178" style="fill:none;stroke:black;"/>
   <text width="144" height="20" x="398" y="192" style="fill:black;" font-family="Arial" font-size="16px">productScale</text>
   <rect width="144" height="20" x="393" y="198" style="fill:none;stroke:black;"/>
   <text width="144" height="20" x="398" y="212" style="fill:black;" font-family="Arial" font-size="16px">productVendor</text>
   <rect width="144" height="20" x="393" y="218" style="fill:none;stroke:black;"/>
   <text width="144" height="20" x="398" y="232" style="fill:black;" font-family="Arial" font-size="16px">productDescription</text>
   <rect width="144" height="20" x="393" y="238" style="fill:none;stroke:black;"/>
   <text width="144" height="20" x="398" y="252" style="fill:black;" font-family="Arial" font-size="16px">quantityInStock</text>
   <rect width="144" height="20" x="393" y="258" style="fill:none;stroke:black;"/>
   <text width="144" height="20" x="398" y="272" style="fill:black;" font-family="Arial" font-size="16px">buyPrice</text>
   <rect width="144" height="20" x="393" y="278" style="fill:none;stroke:black;"/>
   <text width="144" height="20" x="398" y="292" style="fill:black;" font-family="Arial" font-size="16px">MSRP</text>
</svg>
